<svg width="20" height="20" viewBox="0 0 20 20" fill="none" xmlns="http://www.w3.org/2000/svg">
    <path fill-rule="evenodd" clip-rule="evenodd" d="M9.9999 19.6C15.3018 19.6 19.5999 15.302 19.5999 10C19.5999 4.69809 15.3018 0.400024 9.9999 0.400024C4.69797 0.400024 0.399902 4.69809 0.399902 10C0.399902 15.302 4.69797 19.6 9.9999 19.6ZM15.1594 7.68743C15.4976 7.32319 15.4765 6.75373 15.1123 6.41551C14.7481 6.07729 14.1786 6.09838 13.8404 6.46262L8.91106 11.7711L6.14283 8.94522C5.795 8.59015 5.22518 8.58427 4.8701 8.9321C4.51502 9.27993 4.50915 9.84975 4.85698 10.2048L8.28555 13.7048C8.45776 13.8806 8.69443 13.9782 8.94049 13.9749C9.18656 13.9717 9.42054 13.8678 9.58799 13.6874L15.1594 7.68743Z" fill="#5973FF"/>
</svg>
