<svg width="18" height="18" viewBox="0 0 18 18" fill="none" xmlns="http://www.w3.org/2000/svg">
    <path fill-rule="evenodd" clip-rule="evenodd" d="M0.91107 0.910826C1.23651 0.585389 1.76414 0.585389 2.08958 0.910826L9.00033 7.82157L15.9111 0.910826C16.2365 0.585389 16.7641 0.585389 17.0896 0.910826C17.415 1.23626 17.415 1.7639 17.0896 2.08934L10.1788 9.00008L17.0896 15.9108C17.415 16.2363 17.415 16.7639 17.0896 17.0893C16.7641 17.4148 16.2365 17.4148 15.9111 17.0893L9.00033 10.1786L2.08958 17.0893C1.76414 17.4148 1.23651 17.4148 0.91107 17.0893C0.585633 16.7639 0.585633 16.2363 0.91107 15.9108L7.82181 9.00008L0.91107 2.08934C0.585633 1.7639 0.585633 1.23626 0.91107 0.910826Z" fill="#828282"/>
</svg>
