<svg width="20" height="20" viewBox="0 0 20 20" fill="none" xmlns="http://www.w3.org/2000/svg">
    <path d="M9.9999 0.400024C4.7007 0.400024 0.399902 4.70082 0.399902 10C0.399902 15.2992 4.7007 19.6 9.9999 19.6C15.2991 19.6 19.5999 15.2992 19.5999 10C19.5999 4.70082 15.2991 0.400024 9.9999 0.400024ZM9.9999 10.96C9.4719 10.96 9.0399 10.528 9.0399 10V6.16002C9.0399 5.63202 9.4719 5.20002 9.9999 5.20002C10.5279 5.20002 10.9599 5.63202 10.9599 6.16002V10C10.9599 10.528 10.5279 10.96 9.9999 10.96ZM10.9599 14.8H9.0399V12.88H10.9599V14.8Z" fill="#F15A5B"/>
</svg>
