<svg width="24" height="24" viewBox="0 0 24 24" fill="none" xmlns="http://www.w3.org/2000/svg">
<rect x="3" y="3" width="18" height="18" rx="2" stroke="#A7A7A7" stroke-width="2" stroke-linejoin="round"/>
<path d="M15.749 9.25C15.749 9.94036 15.1894 10.5 14.499 10.5C13.8087 10.5 13.249 9.94036 13.249 9.25C13.249 8.55964 13.8087 8 14.499 8C15.1894 8 15.749 8.55964 15.749 9.25Z" fill="#A7A7A7"/>
<path fill-rule="evenodd" clip-rule="evenodd" d="M18.7592 11.3492C19.1187 11.7686 19.0701 12.3999 18.6508 12.7593L15.1508 15.7593C14.7949 16.0643 14.2749 16.0812 13.9 15.8L10.466 13.2245L6.55468 15.8321C6.09516 16.1384 5.47429 16.0142 5.16793 15.5547C4.86158 15.0952 4.98576 14.4743 5.44528 14.168L9.94528 11.168C10.2981 10.9328 10.7608 10.9456 11.1 11.2L14.4582 13.7187L17.3492 11.2408C17.7685 10.8813 18.3998 10.9299 18.7592 11.3492Z" fill="#A7A7A7"/>
</svg>
