<svg width="98" height="35" viewBox="0 0 98 35" fill="none" xmlns="http://www.w3.org/2000/svg">
    <g clip-path="url(#clip0_1479_45253)">
        <path d="M7.8339 4.92958V2.44542C7.8339 1.78697 8.07776 1.27817 8.53499 0.978873C9.02271 0.679577 9.5409 0.5 10.1505 0.5C10.7602 0.5 11.3089 0.649648 11.7661 0.978873C12.2538 1.27817 12.4672 1.78697 12.4672 2.44542V4.92958H18.1978C18.7465 4.92958 19.1733 5.10915 19.4476 5.49824C19.7219 5.88732 19.8439 6.33627 19.8439 6.875C19.8439 7.41373 19.7219 7.86268 19.4476 8.25176C19.1733 8.64084 18.777 8.82042 18.1978 8.82042H1.64603C1.09736 8.82042 0.670606 8.64084 0.396267 8.25176C0.121928 7.86268 0 7.41373 0 6.875C0 6.33627 0.121928 5.88732 0.396267 5.49824C0.670606 5.10915 1.06687 4.92958 1.64603 4.92958H7.8339ZM10.181 10.6162C11.4308 10.6162 12.5586 10.7958 13.5645 11.125C14.5704 11.4542 15.4239 11.963 16.125 12.5915C16.8261 13.2201 17.3443 13.9683 17.7406 14.8662C18.1064 15.7641 18.3198 16.7518 18.3198 17.8292C18.3198 18.9067 18.1369 19.8944 17.7406 20.7923C17.3748 21.6901 16.8261 22.4384 16.125 23.0669C15.4239 23.6954 14.5704 24.1743 13.5645 24.5334C12.5586 24.8926 11.4308 25.0423 10.181 25.0423C8.93126 25.0423 7.80342 24.8627 6.79751 24.5334C5.7916 24.1743 4.9381 23.6954 4.23701 23.0669C3.53593 22.4384 3.01773 21.6901 2.62146 20.7923C2.25568 19.8944 2.0423 18.9067 2.0423 17.8292C2.0423 16.7518 2.22519 15.7641 2.62146 14.8662C3.01773 13.9683 3.53593 13.2201 4.23701 12.5915C4.9381 11.963 5.7916 11.4842 6.79751 11.125C7.80342 10.7658 8.93126 10.6162 10.181 10.6162ZM10.181 21.3908C11.3393 21.3908 12.2843 21.0616 12.9854 20.4331C13.6865 19.8046 14.0523 18.9366 14.0523 17.8292C14.0523 16.7218 13.6865 15.8539 12.9854 15.2254C12.2843 14.5968 11.3393 14.2676 10.181 14.2676C9.02271 14.2676 8.07776 14.5968 7.37667 15.2254C6.67558 15.8539 6.3098 16.7218 6.3098 17.8292C6.3098 18.9366 6.67558 19.8046 7.37667 20.4331C8.07776 21.0616 9.02271 21.3908 10.181 21.3908ZM26.6414 11.544H30.0858C30.665 11.544 31.0918 11.7236 31.3661 12.1127C31.6404 12.5018 31.7624 12.9507 31.7624 13.5194C31.7624 14.088 31.6404 14.537 31.3661 14.9261C31.0918 15.3151 30.665 15.5246 30.0858 15.5246H26.6414V30.0405C26.6414 30.6989 26.3975 31.2077 25.9403 31.507C25.4526 31.8063 24.9344 31.9859 24.3552 31.9859C23.776 31.9859 23.1969 31.8363 22.7397 31.507C22.2519 31.2077 22.0386 30.6989 22.0386 30.0405V2.50528C22.0386 1.84683 22.2824 1.33803 22.7397 1.03873C23.2274 0.739437 23.7456 0.559859 24.3552 0.559859C24.9648 0.559859 25.483 0.709507 25.9403 1.03873C26.428 1.33803 26.6414 1.84683 26.6414 2.50528V11.5141V11.544Z" fill="#39393A"/>
        <path d="M51.2711 23.905V32.5247C51.2711 33.1832 51.0272 33.692 50.57 33.9913C50.0823 34.2906 49.5641 34.4702 48.9544 34.4702C48.3448 34.4702 47.7961 34.3205 47.3389 33.9913C46.8512 33.692 46.6378 33.1832 46.6378 32.5247V23.905H35.146C34.5974 23.905 34.1706 23.7254 33.8963 23.3364C33.6219 22.9473 33.5 22.4983 33.5 21.9596C33.5 21.4209 33.6219 21.0019 33.8963 20.6427C34.1706 20.2536 34.5669 20.074 35.146 20.074H62.7933C63.342 20.074 63.7687 20.2536 64.0431 20.6427C64.3174 21.0318 64.4393 21.4807 64.4393 21.9596C64.4393 22.4385 64.3174 22.9473 64.0431 23.3364C63.7687 23.7254 63.3725 23.905 62.7933 23.905H51.3016H51.2711ZM40.6633 17.6497C39.505 17.6497 38.682 17.4402 38.2247 16.9913C37.7675 16.5723 37.5541 15.7941 37.5541 14.6568V10.9156C37.5541 9.77826 37.7675 9.00009 38.2247 8.58108C38.682 8.16207 39.4745 7.92263 40.6633 7.92263H54.7765C55.3252 7.92263 55.63 7.65326 55.63 7.0846V6.39622C55.63 5.85749 55.3557 5.55819 54.7765 5.55819H39.1087C38.56 5.55819 38.1333 5.37861 37.8589 4.98953C37.5846 4.60045 37.4627 4.18143 37.4627 3.70256C37.4627 3.22368 37.5846 2.80467 37.8589 2.41559C38.1333 2.0265 38.5295 1.84692 39.1087 1.84692H57.0932C58.2515 1.84692 59.0745 2.05643 59.5317 2.50537C59.989 2.92439 60.2023 3.70256 60.2023 4.83988V8.55115C60.2023 9.68847 59.989 10.4666 59.5317 10.8857C59.0745 11.3047 58.282 11.5441 57.0932 11.5441H42.9799C42.4313 11.5441 42.1264 11.8135 42.1264 12.3821V13.1004C42.1264 13.6392 42.4008 13.9385 42.9799 13.9385H59.2879C59.8365 13.9385 60.2633 14.1181 60.5376 14.5071C60.812 14.8962 60.9339 15.3152 60.9339 15.7941C60.9339 16.273 60.812 16.692 60.5376 17.0811C60.2633 17.4702 59.867 17.6497 59.2879 17.6497H40.6328H40.6633Z" fill="#39393A"/>
        <path d="M71.1145 17.5598C69.9562 17.5598 69.1332 17.3503 68.676 16.9014C68.2187 16.4824 68.0054 15.7042 68.0054 14.5669V3.97179C68.0054 3.31334 68.2492 2.80453 68.7065 2.50524C69.1942 2.20594 69.7124 2.02636 70.322 2.02636C70.9317 2.02636 71.5108 2.17601 71.9985 2.50524C72.4862 2.80453 72.6996 3.31334 72.6996 3.97179V12.801C72.6996 13.3397 72.974 13.639 73.5531 13.639C75.5649 13.639 77.5158 13.5792 79.4057 13.4894C81.2956 13.3697 83.1245 13.22 84.8925 12.9806C85.4411 12.9207 85.8984 13.0404 86.2337 13.3697C86.569 13.6989 86.7519 14.1478 86.8128 14.6566C86.8738 15.1954 86.8128 15.7042 86.5995 16.1232C86.4166 16.5422 86.0508 16.7816 85.5021 16.8714C84.7401 16.9612 83.917 17.051 83.0026 17.1408C82.0881 17.2306 81.0517 17.2904 79.8934 17.3802C78.7351 17.47 77.4243 17.5 75.9917 17.5299C74.5285 17.5598 72.913 17.5897 71.145 17.5897L71.1145 17.5598ZM71.7242 27.5563C71.7242 25.2218 72.6691 23.4859 74.5895 22.3186C76.5099 21.1514 79.1313 20.5827 82.5149 20.5827C85.8984 20.5827 88.5198 21.1514 90.4402 22.3186C92.3606 23.4859 93.3055 25.2218 93.3055 27.5563C93.3055 29.8908 92.3606 31.6566 90.4402 32.794C88.5198 33.9313 85.8984 34.5299 82.5149 34.5299C79.1313 34.5299 76.5099 33.9612 74.5895 32.794C72.6691 31.6267 71.7242 29.8908 71.7242 27.5563ZM88.6722 27.5563C88.6722 26.5686 88.215 25.7904 87.2701 25.1619C86.3251 24.5334 84.7401 24.2341 82.5453 24.2341C81.4175 24.2341 80.4726 24.3239 79.68 24.4735C78.8875 24.6232 78.2778 24.8626 77.7901 25.132C77.3024 25.4313 76.9366 25.7605 76.7233 26.1795C76.5099 26.5985 76.388 27.0475 76.388 27.5563C76.388 28.0651 76.5099 28.514 76.7233 28.9331C76.9366 29.3521 77.3024 29.6813 77.7901 29.9806C78.2778 30.2799 78.918 30.4894 79.68 30.639C80.4726 30.7887 81.4175 30.8785 82.5453 30.8785C84.7705 30.8785 86.3556 30.5792 87.2701 29.9507C88.1845 29.3221 88.6722 28.544 88.6722 27.5563ZM93.2141 5.22883H96.3537C96.9024 5.22883 97.3292 5.40841 97.6035 5.79749C97.8778 6.18657 97.9998 6.63552 97.9998 7.20418C97.9998 7.77284 97.8778 8.19186 97.6035 8.58094C97.3292 8.97003 96.9329 9.1496 96.3537 9.1496H93.2141V11.3345H96.3537C96.9024 11.3345 97.3292 11.514 97.6035 11.9031C97.8778 12.2922 97.9998 12.7412 97.9998 13.3098C97.9998 13.8785 97.8778 14.2975 97.6035 14.6866C97.3292 15.0757 96.9329 15.2552 96.3537 15.2552H93.2141V18.4577C93.2141 19.1162 92.9702 19.625 92.513 19.9243C92.0253 20.2235 91.5071 20.4031 90.8974 20.4031C90.2878 20.4031 89.7391 20.2535 89.2819 19.9243C88.7942 19.625 88.5808 19.1162 88.5808 18.4577V2.50524C88.5808 1.84679 88.8247 1.33798 89.2819 1.03869C89.7696 0.739392 90.2878 0.559814 90.8974 0.559814C91.5071 0.559814 92.0558 0.709462 92.513 1.03869C93.0007 1.33798 93.2141 1.84679 93.2141 2.50524V5.1989V5.22883Z" fill="#39393A"/>
    </g>
        <clipPath id="clip0_1479_45253">
            <rect width="98" height="34" fill="white" transform="translate(0 0.5)"/>
        </clipPath>
</svg>
