<svg width="25" height="24" viewBox="0 0 25 24" fill="none" xmlns="http://www.w3.org/2000/svg">
    <path fill-rule="evenodd" clip-rule="evenodd" d="M12.49 3.5C7.80038 3.5 4 7.30647 4 12C4 16.6935 7.80038 20.5 12.49 20.5C17.1925 20.5 21 16.6906 21 12C21 7.3094 17.1925 3.5 12.49 3.5ZM12.49 2C6.97 2 2.5 6.48 2.5 12C2.5 17.52 6.97 22 12.49 22C18.02 22 22.5 17.52 22.5 12C22.5 6.48 18.02 2 12.49 2Z" fill="#A7A7A7"/>
    <path fill-rule="evenodd" clip-rule="evenodd" d="M16.6072 13.5905C16.9714 13.7878 17.1068 14.243 16.9095 14.6072C16.0614 16.1731 14.4149 17.25 12.5 17.25C10.5852 17.25 8.93865 16.1731 8.09053 14.6072C7.89325 14.243 8.02859 13.7878 8.39281 13.5905C8.75703 13.3933 9.21221 13.5286 9.40948 13.8928C10.0104 15.0023 11.1664 15.75 12.5 15.75C13.8336 15.75 14.9896 15.0023 15.5905 13.8928C15.7878 13.5286 16.243 13.3933 16.6072 13.5905Z" fill="#A7A7A7"/>
    <path d="M10.25 10.125C10.25 10.7463 9.74632 11.25 9.125 11.25C8.50368 11.25 8 10.7463 8 10.125C8 9.50368 8.50368 9 9.125 9C9.74632 9 10.25 9.50368 10.25 10.125Z" fill="#A7A7A7"/>
    <path d="M17 10.125C17 10.7463 16.4963 11.25 15.875 11.25C15.2537 11.25 14.75 10.7463 14.75 10.125C14.75 9.50368 15.2537 9 15.875 9C16.4963 9 17 9.50368 17 10.125Z" fill="#A7A7A7"/>
</svg>
