<svg width="24" height="24" viewBox="0 0 24 24" fill="none" xmlns="http://www.w3.org/2000/svg">
    <path fill-rule="evenodd" clip-rule="evenodd" d="M14.2197 3.21967C14.5126 2.92678 14.9874 2.92678 15.2803 3.21967L20.7803 8.71967C21.0732 9.01256 21.0732 9.48744 20.7803 9.78033L9.78033 20.7803C9.63968 20.921 9.44891 21 9.25 21H3.75C3.33579 21 3 20.6642 3 20.25V14.75C3 14.5511 3.07902 14.3603 3.21967 14.2197L14.2197 3.21967ZM4.5 15.0607V19.5H8.93934L19.1893 9.25L14.75 4.81066L4.5 15.0607Z" fill="#A7A7A7"/>
    <path fill-rule="evenodd" clip-rule="evenodd" d="M16.2821 13.2178L10.7821 7.71783L11.8428 6.65717L17.3428 12.1572L16.2821 13.2178Z" fill="#A7A7A7"/>
</svg>
