<svg width="25" height="24" viewBox="0 0 25 24" fill="none" xmlns="http://www.w3.org/2000/svg">
    <path fill-rule="evenodd" clip-rule="evenodd" d="M19.982 16.9548L19.9257 16.9015C19.1684 16.1838 17.1074 14.6809 12.7157 14.6707H12.6458C8.24992 14.6912 6.18911 16.1861 5.43419 16.9015L5.43219 16.9034C5.36933 16.9627 5.25011 17.1267 5.14663 17.417C5.04704 17.6965 5 17.9883 5 18.2077V19.5108H20.3706V18.1218C20.3706 17.6933 20.1867 17.2089 19.982 16.9548ZM12.6423 13.1707H12.7175C17.4982 13.1814 19.9261 14.8354 20.9575 15.8127H20.9682C21.5376 16.3712 21.8706 17.327 21.8706 18.1218V19.722C21.8706 20.4308 21.2905 21.0108 20.5815 21.0108H4.78917C4.08013 21.0108 3.5 20.4308 3.5 19.722V18.2077C3.5 17.4022 3.82229 16.3604 4.40242 15.8127C5.43375 14.8354 7.86168 13.1922 12.6423 13.1707ZM12.6853 9.92005C14.1778 9.92005 15.3966 8.70098 15.3966 7.21002C15.3966 5.71906 14.1778 4.5 12.6853 4.5C11.1928 4.5 9.97406 5.71906 9.97406 7.21002C9.97406 8.70098 11.1928 9.92005 12.6853 9.92005ZM12.6853 11.42C15.0058 11.42 16.8966 9.52983 16.8966 7.21002C16.8966 4.89021 15.0058 3 12.6853 3C10.3648 3 8.47406 4.89021 8.47406 7.21002C8.47406 9.52983 10.3648 11.42 12.6853 11.42Z" fill="#A7A7A7"/>
</svg>
