<svg width="19" height="19" viewBox="0 0 19 19" fill="none" xmlns="http://www.w3.org/2000/svg">
    <mask id="path-1-inside-1_75_81" fill="white">
        <path fill-rule="evenodd" clip-rule="evenodd" d="M13.8966 4.21002C13.8966 6.52983 12.0058 8.42005 9.68534 8.42005C7.36484 8.42005 5.47406 6.52983 5.47406 4.21002C5.47406 1.89021 7.36484 0 9.68534 0C12.0058 0 13.8966 1.89021 13.8966 4.21002ZM9.71755 10.1707C14.4982 10.1814 16.9261 11.8354 17.9575 12.8127H17.9682C18.5376 13.3712 18.8706 14.327 18.8706 15.1218V16.722C18.8706 17.4308 18.2905 18.0108 17.5815 18.0108H1.78917C1.08013 18.0108 0.5 17.4308 0.5 16.722V15.2077C0.5 14.4022 0.822292 13.3604 1.40242 12.8127C2.43375 11.8354 4.86168 10.1922 9.64235 10.1707H9.71755Z"/>
    </mask>
    <path d="M17.9575 12.8127L16.9257 13.9015L17.3596 14.3127H17.9575V12.8127ZM9.71755 10.1707L9.72092 8.67068H9.71755V10.1707ZM17.9682 12.8127L19.0186 11.7418L18.5811 11.3127H17.9682V12.8127ZM1.40242 12.8127L2.43219 13.9034L2.43419 13.9015L1.40242 12.8127ZM9.64235 10.1707V8.67067L9.63561 8.6707L9.64235 10.1707ZM9.68534 9.92005C12.8338 9.92005 15.3966 7.35868 15.3966 4.21002H12.3966C12.3966 5.70098 11.1778 6.92005 9.68534 6.92005V9.92005ZM3.97406 4.21002C3.97406 7.35868 6.53683 9.92005 9.68534 9.92005V6.92005C8.19284 6.92005 6.97406 5.70098 6.97406 4.21002H3.97406ZM9.68534 -1.5C6.53683 -1.5 3.97406 1.06137 3.97406 4.21002H6.97406C6.97406 2.71906 8.19284 1.5 9.68534 1.5V-1.5ZM15.3966 4.21002C15.3966 1.06137 12.8338 -1.5 9.68534 -1.5V1.5C11.1778 1.5 12.3966 2.71906 12.3966 4.21002H15.3966ZM18.9892 11.7239C17.684 10.487 14.8895 8.6823 9.72092 8.67069L9.71418 11.6707C14.1069 11.6805 16.1683 13.1838 16.9257 13.9015L18.9892 11.7239ZM17.9682 11.3127H17.9575V14.3127H17.9682V11.3127ZM20.3706 15.1218C20.3706 14.0051 19.9286 12.6344 19.0186 11.7418L16.9179 13.8836C17.1466 14.1079 17.3706 14.649 17.3706 15.1218H20.3706ZM20.3706 16.722V15.1218H17.3706V16.722H20.3706ZM17.5815 19.5108C19.1185 19.5108 20.3706 18.2597 20.3706 16.722H17.3706C17.3706 16.602 17.4625 16.5108 17.5815 16.5108V19.5108ZM1.78917 19.5108H17.5815V16.5108H1.78917V19.5108ZM-1 16.722C-1 18.2597 0.25212 19.5108 1.78917 19.5108V16.5108C1.90813 16.5108 2 16.602 2 16.722H-1ZM-1 15.2077V16.722H2V15.2077H-1ZM0.372645 11.722C-0.144625 12.2104 -0.476605 12.8412 -0.679303 13.41C-0.885889 13.9897 -1 14.6216 -1 15.2077H2C2 14.9883 2.04704 14.6965 2.14663 14.417C2.25011 14.1267 2.36933 13.9627 2.43219 13.9034L0.372645 11.722ZM9.63561 8.6707C4.47242 8.6939 1.67821 10.4848 0.370648 11.7239L2.43419 13.9015C3.18929 13.1859 5.25095 11.6904 9.64909 11.6707L9.63561 8.6707ZM9.71755 8.67068H9.64235V11.6707H9.71755V8.67068Z" fill="#161618" mask="url(#path-1-inside-1_75_81)"/>
</svg>
