<svg width="25" height="24" viewBox="0 0 25 24" fill="none" xmlns="http://www.w3.org/2000/svg">
    <path fill-rule="evenodd" clip-rule="evenodd" d="M12.49 1.99878C6.96934 1.99878 2.49878 6.47934 2.49878 12C2.49878 17.5207 6.96934 22.0013 12.49 22.0013C18.0207 22.0013 22.5013 17.5207 22.5013 12C22.5013 6.47934 18.0207 1.99878 12.49 1.99878ZM9.40912 13.8931C9.21182 13.5288 8.75658 13.3935 8.39232 13.5908C8.02805 13.7881 7.8927 14.2433 8.09 14.6076C8.93822 16.1736 10.5849 17.2507 12.5 17.2507C14.4151 17.2507 16.0618 16.1736 16.9101 14.6076C17.1074 14.2433 16.972 13.7881 16.6077 13.5908C16.2435 13.3935 15.7882 13.5288 15.5909 13.8931C14.9899 15.0027 13.8338 15.7505 12.5 15.7505C11.1663 15.7505 10.0101 15.0027 9.40912 13.8931ZM10.2497 10.1248C10.2497 10.7462 9.74601 11.2499 9.12461 11.2499C8.50321 11.2499 7.99947 10.7462 7.99947 10.1248C7.99947 9.5034 8.50321 8.99966 9.12461 8.99966C9.74601 8.99966 10.2497 9.5034 10.2497 10.1248ZM15.8755 11.2499C16.4969 11.2499 17.0006 10.7462 17.0006 10.1248C17.0006 9.5034 16.4969 8.99966 15.8755 8.99966C15.2541 8.99966 14.7503 9.5034 14.7503 10.1248C14.7503 10.7462 15.2541 11.2499 15.8755 11.2499Z" fill="#191919"/>
</svg>
