<svg width="14" height="17" viewBox="0 0 14 17" fill="none" xmlns="http://www.w3.org/2000/svg">
    <path d="M9.91809 4.52652C9.5201 4.52652 9.14612 4.58827 8.79615 4.71179C8.44619 4.82844 8.13054 4.94853 7.84919 5.07205C7.56785 5.19556 7.32082 5.25732 7.10809 5.25732C6.88851 5.25732 6.64148 5.19899 6.36699 5.08234C6.09937 4.96569 5.81117 4.85246 5.50238 4.74267C5.19359 4.62602 4.86421 4.56769 4.51425 4.56769C3.85549 4.56769 3.21732 4.74953 2.59974 5.11322C1.98902 5.47004 1.48809 6.00185 1.09696 6.70864C0.705822 7.40857 0.510254 8.27661 0.510254 9.31278C0.510254 10.2803 0.671512 11.241 0.994027 12.1948C1.3234 13.1418 1.71797 13.9446 2.17773 14.6034C2.57572 15.1592 2.96343 15.6361 3.34084 16.0341C3.71825 16.4321 4.15742 16.6311 4.65835 16.6311C4.98773 16.6311 5.2725 16.5762 5.51267 16.4664C5.7597 16.3566 6.01703 16.2469 6.28465 16.1371C6.55913 16.0273 6.8988 15.9724 7.30366 15.9724C7.72224 15.9724 8.05505 16.0273 8.30209 16.1371C8.54912 16.24 8.78929 16.3464 9.0226 16.4561C9.25591 16.5591 9.55441 16.6105 9.91809 16.6105C10.4602 16.6105 10.9234 16.4047 11.3077 15.993C11.6988 15.5812 12.0625 15.1318 12.3987 14.6446C12.783 14.0819 13.0575 13.5707 13.2222 13.1109C13.3937 12.6512 13.4829 12.4076 13.4898 12.3801C13.4761 12.3732 13.3594 12.3115 13.1398 12.1948C12.9271 12.0782 12.6801 11.8963 12.3987 11.6493C12.1242 11.3954 11.8806 11.0626 11.6679 10.6509C11.462 10.2392 11.3591 9.73822 11.3591 9.14809C11.3591 8.63344 11.4415 8.19084 11.6062 7.82029C11.7708 7.44288 11.963 7.13409 12.1826 6.89392C12.4021 6.64688 12.6011 6.46161 12.7796 6.33809C12.958 6.20771 13.0575 6.13223 13.0781 6.11164C12.7212 5.59699 12.3232 5.22987 11.8841 5.01029C11.4518 4.78384 11.0538 4.6466 10.6901 4.59857C10.3264 4.55053 10.0691 4.52652 9.91809 4.52652ZM9.35198 3.2193C9.59901 2.91737 9.80144 2.57427 9.95926 2.19C10.1171 1.79886 10.196 1.39743 10.196 0.98571C10.196 0.862194 10.1857 0.755832 10.1651 0.666626C9.76713 0.68035 9.34855 0.800435 8.90938 1.02688C8.47021 1.25333 8.10652 1.5381 7.81831 1.8812C7.59187 2.1351 7.38944 2.45761 7.21102 2.84875C7.03261 3.23302 6.9434 3.63102 6.9434 4.04274C6.9434 4.1045 6.94684 4.16283 6.9537 4.21772C6.96056 4.27262 6.96742 4.31036 6.97428 4.33095C7.0429 4.34467 7.11495 4.35153 7.19044 4.35153C7.55412 4.35153 7.9384 4.24517 8.34326 4.03245C8.74812 3.81287 9.08436 3.54182 9.35198 3.2193Z" fill="#F6F5F4"/>
</svg>
