<svg width="25" height="24" viewBox="0 0 25 24" fill="none" xmlns="http://www.w3.org/2000/svg">
    <g clip-path="url(#clip0_75_46)">
        <path d="M12.49 2C6.97 2 2.5 6.48 2.5 12C2.5 17.52 6.97 22 12.49 22C18.02 22 22.5 17.52 22.5 12C22.5 6.48 18.02 2 12.49 2ZM9 8C9.83 8 10.5 8.67 10.5 9.5C10.5 10.33 9.83 11 9 11C8.17 11 7.5 10.33 7.5 9.5C7.5 8.67 8.17 8 9 8ZM17.21 14.72C16.3 16.67 14.54 18 12.5 18C10.46 18 8.7 16.67 7.79 14.72C7.63 14.39 7.87 14 8.24 14H16.76C17.13 14 17.37 14.39 17.21 14.72ZM16 11C15.17 11 14.5 10.33 14.5 9.5C14.5 8.67 15.17 8 16 8C16.83 8 17.5 8.67 17.5 9.5C17.5 10.33 16.83 11 16 11Z" fill="#666A7A"/>
    </g>
        <clipPath id="clip0_75_46">
            <rect width="24" height="24" fill="white" transform="translate(0.5)"/>
        </clipPath>
</svg>
