<svg width="25" height="24" viewBox="0 0 25 24" fill="none" xmlns="http://www.w3.org/2000/svg">
    <path d="M3.5 19.9361V14.9765C3.5 14.6944 3.61209 14.4238 3.8116 14.2242L10.4687 7.56715C10.8842 7.15167 11.5578 7.15167 11.9733 7.56714L16.9329 12.5267C17.3483 12.9422 17.3483 13.6158 16.9329 14.0313L10.2758 20.6884C10.0762 20.8879 9.80564 21 9.52348 21H4.56389C3.97632 21 3.5 20.5237 3.5 19.9361Z" fill="#575757"/>
    <path d="M18.3822 11.0274L13.4726 6.11779C13.0571 5.70232 13.0571 5.02871 13.4726 4.61323L14.7742 3.3116C15.1897 2.89613 15.8633 2.89613 16.2788 3.31161L21.1884 8.22119C21.6039 8.63666 21.6039 9.31028 21.1884 9.72575L19.8868 11.0274C19.4713 11.4429 18.7977 11.4429 18.3822 11.0274Z" fill="#575757"/>
</svg>
