<svg width="19" height="19" viewBox="0 0 19 19" fill="none" xmlns="http://www.w3.org/2000/svg">
    <path fill-rule="evenodd" clip-rule="evenodd" d="M13.8966 4.21002C13.8966 6.52983 12.0058 8.42005 9.68534 8.42005C7.36484 8.42005 5.47406 6.52983 5.47406 4.21002C5.47406 1.89021 7.36484 0 9.68534 0C12.0058 0 13.8966 1.89021 13.8966 4.21002ZM9.71755 10.1707C14.4982 10.1814 16.9261 11.8354 17.9575 12.8127H17.9682C18.5376 13.3712 18.8706 14.327 18.8706 15.1218V16.722C18.8706 17.4308 18.2905 18.0108 17.5815 18.0108H1.78917C1.08013 18.0108 0.5 17.4308 0.5 16.722V15.2077C0.5 14.4022 0.822292 13.3604 1.40242 12.8127C2.43375 11.8354 4.86168 10.1922 9.64235 10.1707H9.71755Z" fill="#666A7A"/>
</svg>
