<svg width="25" height="24" viewBox="0 0 25 24" fill="none" xmlns="http://www.w3.org/2000/svg">
    <path fill-rule="evenodd" clip-rule="evenodd" d="M16.8966 7.21002C16.8966 9.52983 15.0058 11.42 12.6853 11.42C10.3648 11.42 8.47406 9.52983 8.47406 7.21002C8.47406 4.89021 10.3648 3 12.6853 3C15.0058 3 16.8966 4.89021 16.8966 7.21002ZM12.7175 13.1707C17.4982 13.1814 19.9261 14.8354 20.9575 15.8127H20.9682C21.5376 16.3712 21.8706 17.327 21.8706 18.1218V19.722C21.8706 20.4308 21.2905 21.0108 20.5815 21.0108H4.78917C4.08013 21.0108 3.5 20.4308 3.5 19.722V18.2077C3.5 17.4022 3.82229 16.3604 4.40242 15.8127C5.43375 14.8354 7.86168 13.1922 12.6423 13.1707H12.7175Z" fill="#F5F5F5"/>
</svg>
