<svg width="25" height="24" viewBox="0 0 25 24" fill="none" xmlns="http://www.w3.org/2000/svg">
<path d="M17.9105 5.30799C18.3211 4.89734 18.9869 4.89734 19.3976 5.30799C19.8082 5.71865 19.8082 6.38445 19.3976 6.7951L14.1927 12L19.3976 17.2049C19.8082 17.6156 19.8082 18.2814 19.3976 18.692C18.9869 19.1027 18.3211 19.1027 17.9105 18.692L12.7056 13.4871L7.50067 18.692C7.09002 19.1027 6.42421 19.1027 6.01356 18.692C5.6029 18.2814 5.6029 17.6156 6.01356 17.2049L11.2185 12L6.01356 6.7951C5.6029 6.38445 5.6029 5.71865 6.01356 5.30799C6.42421 4.89734 7.09002 4.89734 7.50067 5.30799L12.7056 10.5129L17.9105 5.30799Z" fill="#F5F5F5"/>
</svg>
