<svg width="24" height="24" viewBox="0 0 24 24" fill="none" xmlns="http://www.w3.org/2000/svg">
<path fill-rule="evenodd" clip-rule="evenodd" d="M15.2959 3.97866C16.6008 2.67378 18.7164 2.67378 20.0213 3.97866C21.3262 5.28355 21.3262 7.39918 20.0213 8.70406L17.5404 11.1849C17.5396 11.1858 17.5388 11.1866 17.5379 11.1875C17.5371 11.1883 17.5362 11.1891 17.5354 11.1899L9.08918 19.6362C9.07429 19.6511 9.05946 19.6659 9.04468 19.6807C8.84578 19.8801 8.65474 20.0715 8.42693 20.2217C8.22718 20.3535 8.01054 20.4576 7.7829 20.5313C7.52329 20.6153 7.25444 20.6449 6.97454 20.6757C6.95374 20.678 6.93287 20.6803 6.91194 20.6826L4.11038 20.9939C3.80845 21.0274 3.50765 20.9219 3.29284 20.7071C3.07803 20.4923 2.97251 20.1915 3.00606 19.8896L3.31735 17.088C3.31967 17.0671 3.32197 17.0462 3.32426 17.0254C3.35505 16.7455 3.38463 16.4767 3.46867 16.217C3.54237 15.9894 3.64649 15.7728 3.77821 15.573C3.92844 15.3452 4.1199 15.1542 4.31922 14.9553C4.33404 14.9405 4.3489 14.9257 4.36378 14.9108L15.2959 3.97866ZM13.5196 8.58337L5.778 16.325C5.50615 16.5968 5.47161 16.638 5.44787 16.674C5.41535 16.7233 5.38965 16.7768 5.37145 16.833C5.35817 16.8741 5.34757 16.9268 5.30511 17.3089L5.13187 18.8681L6.69108 18.6948C7.07318 18.6524 7.12589 18.6418 7.16692 18.6285C7.22312 18.6103 7.2766 18.5846 7.32591 18.5521C7.36191 18.5283 7.40312 18.4938 7.67497 18.222L15.4166 10.4803L13.5196 8.58337ZM16.8308 9.06613L14.9338 7.16916L16.7101 5.39287C17.234 4.86904 18.0833 4.86904 18.6071 5.39288C19.1309 5.91671 19.1309 6.76601 18.6071 7.28985L16.8308 9.06613Z" fill="#292929"/>
</svg>
