<svg width="24" height="24" viewBox="0 0 24 24" fill="none" xmlns="http://www.w3.org/2000/svg">
<circle cx="12" cy="12" r="9" fill="white"/>
<path fill-rule="evenodd" clip-rule="evenodd" d="M12 21C16.9706 21 21 16.9706 21 12C21 7.02944 16.9706 3 12 3C7.02944 3 3 7.02944 3 12C3 16.9706 7.02944 21 12 21ZM10.3071 8.89287C9.91656 8.50234 9.28339 8.50234 8.89287 8.89287C8.50234 9.28339 8.50234 9.91656 8.89287 10.3071L10.5858 12L8.89287 13.6929C8.50234 14.0834 8.50234 14.7166 8.89287 15.1071C9.28339 15.4976 9.91656 15.4976 10.3071 15.1071L12 13.4142L13.6929 15.1071C14.0834 15.4976 14.7166 15.4976 15.1071 15.1071C15.4976 14.7166 15.4976 14.0834 15.1071 13.6929L13.4142 12L15.1071 10.3071C15.4976 9.91656 15.4976 9.28339 15.1071 8.89287C14.7166 8.50234 14.0834 8.50234 13.6929 8.89287L12 10.5858L10.3071 8.89287Z" fill="#575757"/>
</svg>
